<svg width="21" height="18" viewBox="0 0 21 18" fill="none" xmlns="http://www.w3.org/2000/svg">
<path d="M20.25 2.25H16.5V0.9375C16.5 0.834375 16.4156 0.75 16.3125 0.75H15C14.8969 0.75 14.8125 0.834375 14.8125 0.9375V2.25H11.3438V0.9375C11.3438 0.834375 11.2594 0.75 11.1562 0.75H9.84375C9.74063 0.75 9.65625 0.834375 9.65625 0.9375V2.25H6.1875V0.9375C6.1875 0.834375 6.10313 0.75 6 0.75H4.6875C4.58437 0.75 4.5 0.834375 4.5 0.9375V2.25H0.75C0.335156 2.25 0 2.58516 0 3V16.5C0 16.9148 0.335156 17.25 0.75 17.25H20.25C20.6648 17.25 21 16.9148 21 16.5V3C21 2.58516 20.6648 2.25 20.25 2.25ZM8.4375 13.125C8.4375 13.2281 8.35312 13.3125 8.25 13.3125H3.9375C3.83437 13.3125 3.75 13.2281 3.75 13.125V12C3.75 11.8969 3.83437 11.8125 3.9375 11.8125H8.25C8.35312 11.8125 8.4375 11.8969 8.4375 12V13.125ZM8.4375 9.9375C8.4375 10.0406 8.35312 10.125 8.25 10.125H3.9375C3.83437 10.125 3.75 10.0406 3.75 9.9375V8.8125C3.75 8.70937 3.83437 8.625 3.9375 8.625H8.25C8.35312 8.625 8.4375 8.70937 8.4375 8.8125V9.9375ZM17.2148 7.79766L13.3477 13.1578C13.3131 13.2057 13.2677 13.2447 13.2151 13.2717C13.1626 13.2986 13.1044 13.3126 13.0453 13.3126C12.9863 13.3126 12.928 13.2986 12.8755 13.2717C12.8229 13.2447 12.7775 13.2057 12.743 13.1578L10.0664 9.45C9.97734 9.32578 10.0664 9.15234 10.2188 9.15234H11.5055C11.625 9.15234 11.7375 9.21094 11.8078 9.30703L13.0453 11.0203L15.4758 7.65234C15.5461 7.55391 15.6586 7.49766 15.7781 7.49766H17.0625C17.2148 7.5 17.3039 7.67344 17.2148 7.79766Z" fill="#3AAFA8"/>
</svg>
